<svg xmlns="http://www.w3.org/2000/svg" width="1536" height="864" viewBox="0 0 1536 864">
  <defs><linearGradient id="b" x1="0" y1="0" x2="1" y2="1"><stop stop-color="#101b2b"/><stop offset=".5" stop-color="#263f5e"/><stop offset="1" stop-color="#0b1828"/></linearGradient></defs>
  <rect width="1536" height="864" fill="url(#b)"/>
  <path d="M-80 700C320 410 530 550 810 270c230-231 438-260 806-220v814H-80z" fill="#1e6687" fill-opacity=".45"/>
  <path d="M-80 760c410-280 589-140 864-420 244-248 444-262 832-229" fill="none" stroke="#90c6d2" stroke-opacity=".22" stroke-width="70"/>
  <path d="M-70 814c417-278 604-149 883-426 225-223 434-249 802-216" fill="none" stroke="#e3f5f6" stroke-opacity=".12" stroke-width="3"/>
  <g stroke="#b5d7e4" stroke-opacity=".11" stroke-width="1"><path d="M0 0L1536 864"/><path d="M320 0L1536 684"/><path d="M0 280L1030 864"/></g>
</svg>